<svg width="439" height="439" viewBox="0 0 439 439" fill="none" xmlns="http://www.w3.org/2000/svg">
<path d="M438.997 137.326C438.999 137.326 439 137.325 439 137.323C439 132.08 439 126.836 438.973 121.598C438.947 117.181 438.893 112.763 438.776 108.351C438.515 98.7318 437.949 89.0326 436.242 79.5201C434.508 69.8636 431.675 60.8739 427.204 52.0977C422.819 43.4815 417.083 35.5908 410.249 28.7566C403.41 21.917 395.524 16.1871 386.903 11.7963C378.132 7.33077 369.147 4.49783 359.496 2.76392C349.984 1.05135 340.274 0.485828 330.655 0.224408C326.237 0.107036 321.825 0.0536845 317.407 0.027009C312.163 -0.00500169 306.919 0.000333448 301.68 0.000333448H137.326C132.081 0.000333448 126.837 0.000333422 121.598 0.027009C117.181 0.0536845 112.763 0.107036 108.351 0.224408C98.7317 0.485828 89.0218 1.05135 79.5092 2.76392C69.858 4.49783 60.8737 7.33077 52.1028 11.7963C43.4812 16.1817 35.5959 21.917 28.7563 28.7566C21.9167 35.5962 16.1867 43.4815 11.7959 52.0977C7.33045 60.8739 4.4975 69.8582 2.76359 79.5201C1.05635 89.0326 0.485496 98.7318 0.22941 108.351C0.112037 112.769 0.0586864 117.181 0.0320108 121.598C1.01742e-07 126.843 0 132.087 0 137.326V301.674C0 306.918 1.01742e-07 312.163 0.0320108 317.402C0.0586864 321.819 0.112037 326.232 0.22941 330.649C0.490831 340.268 1.05635 349.967 2.76359 359.48C4.4975 369.136 7.33045 378.126 11.7959 386.902C16.1814 395.519 21.9167 403.409 28.7563 410.244C35.5959 417.083 43.4812 422.813 52.1028 427.204C60.8737 431.669 69.858 434.502 79.5092 436.236C89.0218 437.949 98.7263 438.514 108.351 438.776C112.768 438.893 117.181 438.946 121.598 438.973C126.842 439.005 132.087 439 137.326 439H301.674C306.919 439 312.163 439 317.402 438.973C321.82 438.946 326.232 438.893 330.649 438.776C340.268 438.514 349.973 437.949 359.491 436.236C369.142 434.502 378.126 431.669 386.897 427.204C395.519 422.818 403.404 417.083 410.244 410.244C417.083 403.404 422.813 395.519 427.199 386.902C431.664 378.126 434.497 369.142 436.236 359.48C437.944 349.967 438.515 340.268 438.771 330.649C438.888 326.232 438.941 321.819 438.968 317.402C439 312.158 438.995 306.913 438.995 301.674V137.329C438.995 137.327 438.996 137.326 438.997 137.326Z" fill="#FC4C48"/>
<g filter="url(#filter0_d_36_88)">
<path fill-rule="evenodd" clip-rule="evenodd" d="M204.821 94.1354C213.458 85.9768 227.115 86.1078 235.59 94.5294C287.619 146.241 306.228 164.775 347.545 205.841C351.405 209.677 353.528 214.581 353.928 219.597H353.967V220.124C354.011 220.93 354.011 221.74 353.967 222.546V266.797H353.928C354.419 272.969 352.295 279.308 347.545 284.03L286.47 344.733C277.86 353.289 263.902 353.288 255.293 344.733L220.003 309.657L184.71 344.733C176.1 353.288 162.142 353.289 153.533 344.733L92.4575 284.03C87.7074 279.308 85.5838 272.969 86.0749 266.797H86V219.597H86.0749C86.4742 214.582 88.5981 209.677 92.4575 205.841C135.567 162.993 150.86 147.755 204.413 94.5294L204.821 94.1354ZM169.12 241.447L128.402 200.976L108.078 221.428L169.12 282.098L220 231.526L270.88 282.098L331.922 221.428L311.598 200.976L270.88 241.447L220 190.878L169.12 241.447ZM158.961 170.634L179.285 191.086L220.003 150.615L260.72 191.086L281.045 170.634L220.003 109.964L158.961 170.634Z" fill="url(#paint0_linear_36_88)" stroke="white" stroke-opacity="0.8" stroke-width="2.144" stroke-linejoin="round"/>
</g>
<defs>
<filter id="filter0_d_36_88" x="20.928" y="27.041" width="398.144" height="393.18" filterUnits="userSpaceOnUse" color-interpolation-filters="sRGB">
<feFlood flood-opacity="0" result="BackgroundImageFix"/>
<feColorMatrix in="SourceAlpha" type="matrix" values="0 0 0 0 0 0 0 0 0 0 0 0 0 0 0 0 0 0 127 0" result="hardAlpha"/>
<feOffset dy="4"/>
<feGaussianBlur stdDeviation="32"/>
<feComposite in2="hardAlpha" operator="out"/>
<feColorMatrix type="matrix" values="0 0 0 0 0 0 0 0 0 0 0 0 0 0 0 0 0 0 0.14 0"/>
<feBlend mode="normal" in2="BackgroundImageFix" result="effect1_dropShadow_36_88"/>
<feBlend mode="normal" in="SourceGraphic" in2="effect1_dropShadow_36_88" result="shape"/>
</filter>
<linearGradient id="paint0_linear_36_88" x1="220" y1="88.1133" x2="220" y2="351.15" gradientUnits="userSpaceOnUse">
<stop stop-color="white"/>
<stop offset="1" stop-color="white" stop-opacity="0.53"/>
</linearGradient>
</defs>
</svg>
